<svg width="129" height="54" viewBox="0 0 129 54" fill="none" xmlns="http://www.w3.org/2000/svg">
<path d="M8.46629 1.30354H40.2619C41.3907 1.30354 42.2743 1.08516 42.9127 0.651771L43.8735 0L44.2296 0.131026L44.4379 0.56106L48.3586 18.1286V18.3503L48.1503 18.908L47.6766 19.1298C47.2231 19.1298 46.7191 18.3739 46.1547 16.8587C45.5869 15.3435 44.9688 14.0399 44.2867 12.9548C42.5297 10.2267 40.4164 8.02282 37.9605 6.343C35.461 4.65646 32.6389 3.50746 29.6723 2.97664V43.6652C29.6723 45.7247 29.8269 47.1727 30.1259 48.0025C30.4282 48.829 30.9557 49.4673 31.7116 49.9209C32.3634 50.3207 33.3982 50.5894 34.8193 50.7372C36.2404 50.8851 36.9459 51.2479 36.9459 51.819L36.6436 52.4876L35.6256 52.6724H12.7263L11.6344 52.4876L11.3321 51.819C11.3321 51.2479 11.9872 50.8952 13.2941 50.754C14.601 50.6129 15.5652 50.4114 16.1935 50.1392C17.0401 49.7798 17.7154 49.0944 18.0614 48.2444C18.4243 47.3776 18.609 45.8456 18.609 43.6652V2.97664C15.5182 3.54442 12.7633 4.66318 10.3242 6.32284C7.79436 8.08665 5.63747 10.341 3.99461 12.9514C3.29581 14.0702 2.66083 15.3771 2.10649 16.8788C1.55551 18.3739 1.05157 19.1298 0.601375 19.1298L0.188141 18.9114L0 18.3503V18.1286L4.40113 0.524104L4.62958 0.167982L5.00586 0.00336036L5.9264 0.65513C6.49418 1.08852 7.33745 1.3069 8.46965 1.3069L8.46629 1.30354ZM75.6221 1.8982C70.7506 1.8982 67.0214 4.04164 64.4311 8.33526C61.8442 12.6289 60.5508 18.8442 60.5508 26.988C60.5508 35.1317 61.8442 41.3437 64.4311 45.6373C67.0214 49.9309 70.7472 52.0777 75.6221 52.0777C80.4969 52.0777 84.1724 49.9343 86.7358 45.6373C89.2958 41.3437 90.5758 35.1284 90.5758 26.988C90.5758 18.8476 89.2857 12.6289 86.7089 8.33526C84.1354 4.04164 80.4364 1.8982 75.6154 1.8982H75.6221ZM75.6221 0.295648C83.4534 0.295648 89.9308 2.80866 95.0408 7.83467C100.154 12.8607 102.704 19.2406 102.704 26.9913C102.704 34.742 100.151 41.1018 95.0408 46.1648C89.9274 51.2278 83.4534 53.7576 75.6221 53.7576C72.3834 53.7576 69.3564 53.3007 66.541 52.4003C63.739 51.4999 61.1152 50.1157 58.7802 48.3183C55.4643 45.812 52.9109 42.7144 51.1337 39.0323C49.3329 35.2728 48.4191 31.1539 48.4594 26.9913C48.4594 19.2474 51.0161 12.8607 56.1261 7.83467C61.2395 2.80866 67.7404 0.295648 75.6221 0.295648ZM107.411 1.30354H127.451C128.029 1.30354 128.426 1.37409 128.654 1.52528L128.993 2.2644C128.993 2.73811 128.51 3.05727 127.545 3.23869C126.796 3.3462 126.064 3.56122 125.378 3.8703C124.501 4.34401 123.883 4.98906 123.534 5.80545C123.184 6.62185 123.006 8.16392 123.006 10.4182V43.5879C123.006 45.849 123.181 47.3944 123.534 48.2209C123.883 49.0507 124.512 49.7025 125.422 50.1762C125.822 50.371 126.521 50.5693 127.512 50.754C128.503 50.9388 129 51.2714 129 51.7451L128.718 52.4876C128.526 52.6086 128.11 52.6724 127.458 52.6724H107.418C106.742 52.6724 106.299 52.6052 106.097 52.4708L105.798 51.7451C105.798 51.2714 106.282 50.9489 107.246 50.754C108.211 50.5659 108.923 50.361 109.37 50.1392C110.213 49.7327 110.881 49.0406 111.258 48.1873C111.634 47.3339 111.826 45.7986 111.826 43.5913V8.52004C111.826 7.30385 111.574 6.28588 111.07 5.46613C110.566 4.64974 109.84 4.04164 108.882 3.64185C108.533 3.5209 108.039 3.40667 107.411 3.30588C106.329 3.10766 105.788 2.75826 105.788 2.25768L106.144 1.51856C106.383 1.36737 106.8 1.29682 107.404 1.29682L107.411 1.30354Z" fill="#703133"/>
</svg>
