<svg width="192" height="31" viewBox="0 0 192 31" fill="none" xmlns="http://www.w3.org/2000/svg">
<path d="M11.1831 6.2739C9.95012 6.15727 8.7338 6.04063 7.51749 5.93233C6.93432 5.88235 6.34699 5.85319 5.76383 5.80737C3.72692 5.65741 2.11488 6.47384 0.823588 7.9984C0.748609 8.08588 0.673631 8.17752 0.602818 8.27332C0.457027 8.4691 0.311235 8.38579 0.148782 8.28998C-0.0594908 8.16502 -0.0303326 8.03589 0.0779695 7.85677C1.45674 5.60742 2.83551 3.35391 4.20178 1.10039C4.37256 0.821307 4.61416 0.854632 4.86409 0.854632C7.64662 0.83797 10.4042 1.16287 13.1617 1.51694C16.0858 1.89183 18.9892 2.49999 21.9675 2.28339C23.3171 2.18341 24.6709 2.10843 25.833 1.292C25.9455 1.21286 26.0788 1.13372 26.2038 1.25868C26.3246 1.38365 26.2079 1.5211 26.1663 1.63774C25.5664 3.24977 24.9666 4.86181 24.346 6.46551C23.8503 7.75264 23.8378 7.76097 22.4548 7.68183C20.8136 7.59019 19.1974 7.27361 17.5771 7.02368C16.8273 6.90705 16.819 6.90288 16.8106 7.64434C16.7898 10.1853 16.7565 12.7304 16.769 15.2713C16.7731 16.4043 16.8523 17.5456 17.5438 18.5287C17.7479 18.8161 17.5063 18.8994 17.3313 19.0077C16.2066 19.72 15.0736 20.4115 13.9615 21.1404C13.0326 21.7528 12.137 22.4234 11.2164 23.0441C10.7665 23.3481 10.8665 23.5273 11.2789 23.7605C12.9617 24.7102 14.7862 25.2059 16.6898 25.3809C18.2894 25.5308 19.8931 25.4267 21.476 25.0893C22.4673 24.881 23.3879 24.5395 24.2127 23.9438C24.3668 23.8313 24.5167 23.6772 24.7333 23.823C24.9874 23.9896 24.8 24.1771 24.7458 24.3395C24.1627 26.1015 23.567 27.8593 22.9797 29.6213C22.8964 29.8712 22.8131 30.0629 22.4923 30.1212C18.3019 30.8751 14.1322 31.0667 10.0418 29.6088C6.82602 28.4633 4.14763 26.5722 2.50643 23.5147C0.161279 19.141 0.523675 14.5132 4.83493 10.7226C6.62191 9.14807 8.62134 7.89427 10.6791 6.7196C10.8332 6.63213 10.9832 6.54465 11.1289 6.44885C11.1539 6.43219 11.1539 6.3822 11.1873 6.2739H11.1831ZM11.8162 13.7426C11.7746 13.7426 11.8579 13.7426 11.8162 13.7426C11.8162 11.7515 11.8162 9.76039 11.8162 7.7693C11.8162 7.64017 11.8829 7.47355 11.7413 7.39441C11.5955 7.3111 11.4955 7.46522 11.3914 7.5402C10.7999 7.99007 10.2375 8.47327 9.72518 9.01061C7.62579 11.2141 7.01763 13.9425 6.93016 16.8708C6.86351 19.1493 7.76742 20.9447 9.45443 22.4234C9.86681 22.7858 10.1251 22.7316 10.4708 22.3776C11.2581 21.5695 11.6871 20.6114 11.6913 19.4867C11.7038 17.5748 11.8162 15.6587 11.8162 13.7467V13.7426Z" fill="#703133"/>
<path d="M78.3186 6.40675C76.2983 6.05685 74.2989 5.83608 72.287 5.81109C70.6375 5.79026 69.3212 6.55254 68.2215 7.73553C68.1132 7.848 68.0132 7.9688 67.9133 8.08959C67.755 8.27704 67.6383 8.5353 67.3093 8.29787C66.9844 8.0646 67.2385 7.88549 67.3468 7.71054C68.4839 5.84025 69.7002 4.01161 70.7416 2.08716C71.2873 1.08329 71.9121 0.783373 73.0326 0.833358C76.6149 0.995811 80.1597 1.47484 83.7004 1.98719C86.1538 2.34126 88.6031 2.45789 91.0607 2.05801C91.7272 1.9497 92.3437 1.7206 92.9102 1.34988C93.0352 1.26657 93.1643 1.11661 93.3267 1.22491C93.5184 1.34988 93.3684 1.51233 93.3184 1.64146C92.602 3.54508 91.873 5.44036 91.169 7.34814C91.0482 7.68138 90.8441 7.71887 90.5401 7.71471C88.5948 7.69388 86.6912 7.31482 84.7792 7.0274C83.9628 6.90244 83.9628 6.89411 83.9586 7.71887C83.9461 9.96822 83.9211 12.2176 83.917 14.4669C83.917 15.8915 83.8587 17.3328 84.7376 18.5907C84.95 18.8948 84.5876 18.9406 84.4376 19.0323C82.7506 20.0611 81.0803 21.115 79.4599 22.2438C79.0892 22.5021 78.7476 22.7937 78.3686 23.0353C77.8895 23.3394 78.0437 23.531 78.4352 23.7517C79.8848 24.5723 81.4552 25.0347 83.088 25.2805C85.0625 25.5804 87.0286 25.4387 88.9738 25.0014C89.8236 24.8098 90.6067 24.4682 91.3148 23.96C91.4856 23.8392 91.6522 23.6518 91.8855 23.8225C92.1188 23.9892 91.9355 24.1891 91.8855 24.3516C91.3023 26.1136 90.7067 27.8714 90.1152 29.6334C90.0319 29.8875 89.9236 30.0624 89.6112 30.1166C85.4415 30.8622 81.2844 31.0621 77.2147 29.6084C73.4991 28.2838 70.5417 26.0094 69.0838 22.2438C67.2926 17.6327 68.3715 13.9754 71.9912 10.718C73.7491 9.13513 75.7443 7.91048 77.7771 6.73582C77.9604 6.63168 78.1395 6.52338 78.3228 6.41508L78.3186 6.40675ZM78.8684 13.7546C78.9059 13.7546 78.9476 13.7546 78.9851 13.7546C78.9851 11.7594 78.9851 9.76411 78.9851 7.76886C78.9851 7.63973 79.0475 7.47311 78.9184 7.3898C78.7726 7.29399 78.6685 7.45228 78.5685 7.52726C77.5105 8.34369 76.5316 9.2351 75.8068 10.3764C74.553 12.3425 74.1906 14.5294 74.1156 16.8162C74.0365 19.1739 74.9779 21.015 76.7482 22.5021C77.0606 22.7645 77.2731 22.727 77.5438 22.4688C78.3977 21.6607 78.8643 20.6818 78.8726 19.5071C78.8851 17.591 78.8726 15.6749 78.8726 13.7588L78.8684 13.7546Z" fill="#703133"/>
<path d="M44.9694 26.7844C43.3699 27.9258 41.837 29.0005 40.3749 30.1751C40.1791 30.3334 40.0459 30.2918 39.8709 30.1418C38.6879 29.1213 37.4966 28.1007 36.3053 27.0927C36.1178 26.9344 36.0845 26.8094 36.2636 26.6136C37.1175 25.6639 37.2966 24.4851 37.305 23.2771C37.33 20.3446 37.3133 17.408 37.3383 14.4755C37.3383 14.0381 37.205 13.8132 36.801 13.6424C35.8096 13.2259 34.8265 12.7968 33.7477 12.6302C33.2686 12.5552 33.0562 12.6302 33.0562 13.205C33.0562 17.0373 33.0187 20.8736 32.9812 24.7059C32.9812 25.0433 33.0937 25.2599 33.3603 25.4348C33.7852 25.7139 34.1934 26.018 34.6266 26.2804C34.889 26.4387 34.8848 26.5637 34.6807 26.7636C33.5311 27.8841 32.3856 29.0046 31.2484 30.1376C31.0401 30.3459 30.8985 30.2918 30.7027 30.1376C29.603 29.2546 28.4534 28.4465 27.2454 27.7175C27.0704 27.6134 26.8372 27.5301 27.0788 27.2426C27.8535 26.3137 28.0118 25.1766 28.0077 24.0394C27.9952 18.8576 27.9577 13.6716 27.8952 8.48972C27.8785 7.19009 27.6328 5.91963 26.8997 4.79912C26.7455 4.56585 26.758 4.44505 27.0205 4.30759C29.1948 3.17459 31.2484 1.85413 33.2103 0.387891C33.2895 0.329575 33.3644 0.262929 33.5394 0.350404C32.7521 4.11598 33.2187 7.94821 33.0604 11.7721C33.3769 11.7971 33.4769 11.5722 33.6227 11.4347C34.5058 10.6016 35.3847 9.76852 36.247 8.9146C36.4844 8.68133 36.6593 8.6605 36.9509 8.83129C38.817 9.90598 40.7706 10.8057 42.7742 11.5972C43.1241 11.7346 43.2241 11.8596 43.0367 12.2261C42.5618 13.1592 42.516 14.1881 42.5076 15.2044C42.4826 18.316 42.4951 21.4235 42.4702 24.5351C42.4702 24.9391 42.5951 25.1766 42.9284 25.389C43.6032 25.818 44.2488 26.2929 44.9778 26.7969L44.9694 26.7844Z" fill="#703133"/>
<path d="M127.275 0.221313C126.1 3.75363 126.671 7.34842 126.517 10.8974C126.829 10.9474 126.966 10.7474 127.133 10.635C128.137 9.956 129.137 9.2687 130.124 8.56474C130.382 8.38146 130.574 8.34397 130.849 8.53558C132.473 9.66442 134.198 10.6266 135.985 11.4806C136.289 11.6264 136.38 11.7555 136.239 12.097C135.872 12.9843 135.864 13.9382 135.868 14.8713C135.889 17.4538 135.964 20.0323 136.026 22.6148C136.051 23.5771 136.172 24.5268 136.601 25.4057C136.734 25.6765 136.626 25.7723 136.397 25.8889C133.898 27.1552 131.482 28.559 129.345 30.3959C129.091 30.6125 128.924 30.4709 128.72 30.3709C127.6 29.8169 126.479 29.2546 125.354 28.7131C124.042 28.0799 122.668 27.6342 121.231 27.4093C120.789 27.3385 120.714 27.226 120.947 26.8261C121.518 25.8431 121.576 24.7267 121.58 23.6395C121.605 19.5324 121.58 15.4253 121.58 11.3181C121.58 10.3601 121.585 9.402 121.564 8.44394C121.535 7.11932 121.368 5.82386 120.51 4.73668C120.264 4.42427 120.547 4.37845 120.718 4.29097C122.514 3.36624 124.217 2.29155 125.904 1.19187C126.371 0.887788 126.816 0.550386 127.27 0.22548L127.275 0.221313ZM130.986 20.0864C130.953 20.0864 130.919 20.0864 130.886 20.0864C130.886 18.2286 130.886 16.3708 130.886 14.513C130.886 14.2298 130.874 13.9882 130.586 13.8132C129.632 13.2384 128.699 12.6302 127.741 12.0596C127.208 11.743 126.612 12.0887 126.604 12.7094C126.571 16.3666 126.55 20.0239 126.517 23.6812C126.517 23.9853 126.625 24.1311 126.908 24.2269C128.154 24.6476 129.337 25.2141 130.457 25.8972C130.903 26.168 130.999 26.1013 130.99 25.5973C130.969 23.7603 130.982 21.9234 130.982 20.0822L130.986 20.0864Z" fill="#703133"/>
<path d="M150.11 19.9823C150.11 18.1828 150.098 16.3834 150.118 14.5839C150.127 14.1174 149.973 13.7966 149.594 13.555C149.56 13.5342 149.531 13.5092 149.502 13.4842C149.114 13.1385 148.386 12.9427 148.369 12.4928C148.356 12.1179 148.952 11.7222 149.294 11.3473C150.093 10.4601 150.906 9.5895 151.697 8.69392C151.947 8.40651 152.118 8.33986 152.439 8.63144C153.497 9.5895 154.584 10.5142 155.667 11.4473C155.854 11.6097 156.012 11.7389 155.833 12.0263C155.217 13.0135 155.134 14.1257 155.146 15.2504C155.179 18.3411 155.229 21.4319 155.242 24.5227C155.242 25.01 155.396 25.3266 155.808 25.5765C156.346 25.8973 156.846 26.2722 157.379 26.6054C157.633 26.7637 157.658 26.872 157.416 27.0719C156.146 28.1133 154.879 29.1588 153.626 30.2252C153.359 30.4501 153.222 30.3168 153.043 30.1461C152.18 29.3463 151.297 28.5757 150.464 27.7509C150.098 27.3885 149.91 27.4385 149.614 27.8217C149.019 28.5965 148.369 29.3296 147.752 30.0877C147.557 30.3293 147.382 30.4168 147.057 30.2794C144.762 29.288 142.529 28.1425 140.155 27.3385C139.88 27.2469 139.896 27.1178 140.017 26.9053C140.8 25.5307 140.963 24.0228 140.959 22.4858C140.946 19.7074 140.9 16.9332 140.896 14.1548C140.896 13.7425 140.759 13.5134 140.413 13.3259C139.863 13.026 139.338 12.6803 138.797 12.372C138.555 12.2346 138.493 12.1263 138.717 11.8972C139.817 10.785 140.909 9.66031 141.987 8.53147C142.191 8.31903 142.329 8.36069 142.529 8.51897C143.791 9.53951 145.057 10.56 146.39 11.4848C146.632 11.6556 146.661 11.8055 146.553 12.0721C146.161 13.026 146.045 14.0299 146.04 15.0587C146.032 18.0912 146.02 21.1237 145.986 24.1561C145.986 24.5185 146.057 24.7185 146.428 24.8476C147.423 25.2017 148.394 25.614 149.381 25.9931C149.968 26.218 150.023 26.1889 150.023 25.5682C150.031 23.7104 150.023 21.8526 150.023 19.9948C150.052 19.9948 150.081 19.9948 150.11 19.9948V19.9823Z" fill="#703133"/>
<path d="M165.385 19.2575C165.385 21.1362 165.393 23.0148 165.376 24.8892C165.376 25.2808 165.472 25.5557 165.818 25.7598C166.222 25.9973 166.593 26.2888 166.997 26.5304C167.247 26.6804 167.297 26.7804 167.047 26.9886C165.826 27.9967 164.61 29.0131 163.406 30.0419C163.185 30.2294 163.044 30.1752 162.856 30.0169C161.657 29.0089 160.37 28.1175 159.066 27.2552C158.937 27.1719 158.683 27.0886 158.941 26.8803C160.145 25.914 160.295 24.5269 160.32 23.1564C160.374 20.2239 160.332 17.2873 160.345 14.3548C160.345 14.0465 160.236 13.8549 159.986 13.68C159.328 13.2218 158.67 12.7636 157.954 12.397C157.687 12.2596 157.641 12.1554 157.874 11.9472C159.045 10.9058 160.136 9.78528 161.14 8.58146C161.357 8.3232 161.473 8.4565 161.652 8.60645C162.706 9.51036 163.777 10.3934 164.822 11.3057C165.147 11.5848 165.372 11.6056 165.722 11.3182C166.63 10.5684 167.459 9.73946 168.292 8.9147C168.555 8.65644 168.75 8.58563 169.096 8.76891C170.95 9.73946 172.849 10.6184 174.786 11.414C175.278 11.6139 175.436 11.7722 175.182 12.3262C174.765 13.2218 174.686 14.2132 174.678 15.1962C174.661 18.3453 174.678 21.4944 174.665 24.6435C174.665 24.9684 174.757 25.1808 175.036 25.3641C175.607 25.739 176.144 26.1639 176.706 26.5554C176.948 26.7221 176.973 26.8345 176.723 27.0261C175.369 28.0592 174.028 29.1005 172.687 30.1502C172.508 30.2877 172.379 30.3335 172.187 30.1544C171.054 29.0964 169.779 28.2175 168.567 27.2636C168.384 27.1219 168.234 27.0053 168.421 26.7429C169.292 25.5391 169.438 24.1228 169.479 22.719C169.563 19.9448 169.55 17.1665 169.584 14.3881C169.584 14.0799 169.463 13.9257 169.184 13.8341C168.142 13.4884 167.088 13.1968 166.018 12.9635C165.547 12.8594 165.364 12.9802 165.372 13.5092C165.401 15.4253 165.385 17.3414 165.385 19.2575Z" fill="#703133"/>
<path d="M108.022 15.0544C108.072 15.2336 107.935 15.4127 107.71 15.5835C106.494 16.504 105.286 17.4329 104.069 18.3576C103.953 18.4451 103.84 18.6326 103.674 18.5326C103.532 18.4451 103.574 18.2493 103.561 18.0952C103.419 16.4332 103.145 14.7962 102.561 13.2258C102.266 12.426 102.295 12.476 101.607 12.9717C100.891 13.4882 100.62 14.113 100.62 14.992C100.62 18.2369 100.562 21.4859 100.512 24.7308C100.508 25.0557 100.704 25.114 100.928 25.1973C102.174 25.668 103.436 26.0804 104.719 26.4345C105.211 26.5678 105.173 26.7094 104.869 27.026C103.811 28.1257 102.765 29.2378 101.732 30.3584C101.491 30.6208 101.295 30.6374 100.978 30.5C98.9957 29.6169 96.9963 28.7671 94.9177 28.1298C94.7094 28.0673 94.472 28.0465 94.6553 27.7133C95.3384 26.4803 95.3343 25.114 95.3676 23.7728C95.4426 20.8611 95.4426 17.9453 95.4884 15.0294C95.4967 14.6337 95.3634 14.3796 95.051 14.1464C94.2471 13.5549 93.4765 12.9217 92.6767 12.3261C92.4351 12.1469 92.4309 12.0303 92.635 11.8304C93.7389 10.7473 94.8386 9.66433 95.9258 8.56465C96.1965 8.29389 96.3173 8.48967 96.4881 8.65212C97.6544 9.78096 98.8374 10.8973 99.9829 12.0428C100.291 12.3511 100.466 12.3302 100.795 12.072C102.274 10.9181 103.786 9.80179 105.273 8.65629C105.581 8.41885 105.744 8.36887 105.985 8.74793C107.189 10.6432 107.743 12.7384 108.018 15.0503L108.022 15.0544Z" fill="#703133"/>
<path d="M59.7145 15.654C59.6604 15.8915 59.4563 15.9498 59.3063 16.0622C57.0736 17.6826 54.8493 19.3071 52.5999 20.9067C52.0334 21.3066 51.8126 21.7648 51.846 22.4687C51.9084 23.8725 51.8668 23.8725 53.1747 24.4098C54.8576 25.1055 56.5946 25.6428 58.3274 26.1885C58.8398 26.3509 58.8439 26.4926 58.4774 26.8425C57.3735 27.8963 56.3322 29.0085 55.3241 30.1582C55.12 30.3914 54.9826 30.4414 54.6951 30.2748C52.1334 28.7961 49.4716 27.5256 46.7141 26.4592C46.5183 26.3843 46.2976 26.3426 46.3975 26.0219C46.8807 24.4431 46.8307 22.8103 46.8349 21.1899C46.8432 18.9239 46.939 16.6496 46.5933 14.3961C46.5142 13.8962 46.3809 13.4047 46.2476 12.9131C46.1768 12.6549 46.2226 12.5299 46.4892 12.4341C49.3258 11.3761 51.9418 9.88902 54.5077 8.31031C54.8409 8.1062 54.9825 8.14786 55.1742 8.48109C56.5404 10.8554 57.9942 13.1714 59.5604 15.4208C59.6145 15.4999 59.6687 15.579 59.7228 15.654H59.7145ZM51.9084 12.2258V19.7153C52.9915 18.9614 53.9745 18.2616 54.9742 17.5826C55.245 17.3952 55.1825 17.2327 55.0492 17.0036C54.1578 15.4707 53.1956 13.9795 52.2167 12.5008C52.1459 12.3925 52.0959 12.2508 51.9126 12.2217L51.9084 12.2258Z" fill="#703133"/>
<path d="M191.214 26.389C190.169 27.4887 189.194 28.5009 188.232 29.5256C187.374 30.4379 187.382 30.442 186.299 29.8422C184.004 28.5717 181.638 27.4429 179.188 26.5015C178.78 26.3432 178.709 26.1932 178.843 25.7809C179.13 24.8811 179.147 23.9314 179.176 22.9942C179.263 20.2366 179.318 17.4791 179.026 14.7299C178.964 14.1217 178.826 13.5344 178.643 12.9554C178.56 12.6888 178.564 12.543 178.872 12.4264C181.688 11.3767 184.295 9.91045 186.84 8.33174C187.228 8.09431 187.369 8.15679 187.586 8.53168C188.907 10.8185 190.302 13.0595 191.81 15.2256C192.085 15.6213 192.081 15.7921 191.677 16.0795C189.365 17.7249 187.082 19.4077 184.779 21.0614C184.374 21.353 184.212 21.682 184.22 22.1902C184.245 23.8856 184.225 23.8897 185.816 24.5271C187.324 25.1311 188.873 25.6059 190.419 26.1099C190.66 26.1891 190.893 26.2766 191.214 26.389ZM184.275 19.7201C185.333 18.987 186.286 18.308 187.257 17.6582C187.574 17.4499 187.594 17.2792 187.403 16.9584C186.52 15.4588 185.574 13.9968 184.616 12.5472C184.533 12.4264 184.483 12.2598 184.275 12.2223V19.7201Z" fill="#703133"/>
<path d="M109.363 12.2138C110.205 11.3557 111.025 10.5268 111.842 9.69372C112.196 9.33132 112.57 8.98142 112.895 8.59404C113.133 8.30662 113.308 8.34827 113.566 8.55655C114.707 9.47711 115.915 10.3102 117.165 11.0808C117.452 11.2599 117.548 11.3891 117.352 11.714C116.936 12.4221 116.815 13.2302 116.798 14.03C116.728 17.6081 116.694 21.1821 116.64 24.7602C116.64 25.0226 116.723 25.1934 116.948 25.335C117.448 25.6433 117.919 25.9973 118.423 26.2889C118.744 26.4722 118.815 26.5763 118.494 26.8554C117.269 27.9218 116.061 29.0048 114.928 30.167C114.728 30.3711 114.587 30.4169 114.349 30.2128C113.004 29.0465 111.612 27.9426 110.155 26.9179C109.942 26.7721 109.925 26.6472 110.105 26.4514C111.108 25.3642 111.383 24.0146 111.421 22.6025C111.496 19.8075 111.533 17.0124 111.604 14.2216C111.612 13.8384 111.475 13.6093 111.188 13.3926C110.609 12.9594 109.988 12.5929 109.351 12.2138H109.363Z" fill="#703133"/>
<path d="M114.112 0.117188C114.237 0.221324 114.345 0.304636 114.437 0.396276C115.378 1.33351 116.307 2.28739 117.265 3.21213C117.544 3.47872 117.49 3.62868 117.24 3.86194C116.274 4.77418 115.32 5.70307 114.37 6.63614C114.133 6.8694 113.97 6.92772 113.704 6.6528C112.8 5.70724 111.875 4.77834 110.942 3.85361C110.721 3.637 110.659 3.49121 110.917 3.24545C111.9 2.29156 112.858 1.31268 113.829 0.346289C113.908 0.267145 114.004 0.200497 114.103 0.117188H114.112Z" fill="#703133"/>
</svg>
