<svg width="89" height="53" viewBox="0 0 89 53" fill="none" xmlns="http://www.w3.org/2000/svg">
<path d="M44.7291 38.9673V52.3729H0.0579467C0.040311 52.2067 0.0226744 52.0479 0 51.8464C0.760854 51.7255 1.52171 51.597 2.28256 51.4811C3.0938 51.3576 3.91008 51.2669 4.71881 51.1233C6.11454 50.8739 7.01144 49.9443 7.08199 48.5384C7.16513 46.8958 7.15253 45.2481 7.15505 43.603C7.16009 40.5923 7.15001 37.5816 7.14245 34.5735C7.12985 29.3382 7.0971 24.1055 7.09962 18.8702C7.10214 14.0859 7.14497 9.29904 7.16009 4.51473C7.16009 4.14187 7.12733 3.76144 7.0442 3.39865C6.76958 2.16163 5.90292 1.56706 4.71881 1.36551C3.16183 1.10097 1.60233 0.854071 0.0403111 0.597094V0H88.1255V15.1239C87.3621 14.5091 86.8028 13.8616 86.6743 12.869C86.4803 11.3473 86.2637 9.82559 85.6767 8.38703C84.4648 5.42675 82.2553 3.68334 79.1641 2.97791C77.2166 2.53198 75.2389 2.30524 73.2536 2.13392C72.5759 2.07597 71.9032 1.97772 71.2255 1.92985C70.059 1.84671 69.535 2.59748 69.5299 3.61531C69.5199 5.75679 69.5299 7.89827 69.5299 10.0397C69.5299 21.4274 69.5325 32.8124 69.535 44.2001C69.535 45.5051 69.5148 46.8127 69.535 48.1177C69.5526 49.2514 69.8978 50.2516 71.0441 50.7127C71.5908 50.9318 72.1929 51.0351 72.7799 51.1233C74.0422 51.3072 75.3119 51.4483 76.5792 51.6045C76.8462 51.6373 77.1133 51.6675 77.3829 51.6927C77.859 51.738 77.859 51.7355 77.7658 52.2696H77.4232C69.3259 52.2696 61.2286 52.2696 53.1313 52.2747C52.8466 52.2747 52.6753 52.2243 52.7408 51.8565C53.8846 51.6902 55.0334 51.5289 56.1772 51.3501C57.1724 51.1939 58.1751 51.0704 59.1526 50.8336C60.3292 50.5489 60.9111 49.7931 60.9666 48.5787C61.0195 47.4022 61.027 46.2256 61.0472 45.0466C61.0673 43.8196 61.0825 42.5952 61.085 41.3683C61.085 40.3152 61.0522 39.2621 61.0522 38.209C61.0522 37.1685 61.085 36.128 61.085 35.0849C61.085 34.0444 61.0522 33.0039 61.0522 31.9634C61.0522 30.9103 61.085 29.8572 61.085 28.8041C61.085 27.7762 61.0522 26.7458 61.0522 25.7179C61.0522 24.6522 61.085 23.589 61.085 22.5233C61.085 21.4954 61.0522 20.4649 61.0522 19.437C61.0522 18.3713 61.0824 17.3082 61.0824 16.2425C61.0824 15.2146 61.0522 14.1841 61.0522 13.1562C61.0522 12.0905 61.0824 11.0273 61.0824 9.96164C61.0824 8.93373 61.0573 7.90331 61.0497 6.8754C61.0447 5.84245 61.0648 4.80698 61.0396 3.77404C61.0321 3.39361 60.959 3.00562 60.8633 2.63527C60.7474 2.1969 60.3821 1.92985 59.921 1.93237C59.1828 1.93741 58.4421 1.92985 57.7115 2.01047C56.3158 2.16415 54.9175 2.33547 53.5344 2.57985C52.1311 2.82927 50.7908 3.29535 49.5663 4.05117C48.1328 4.93295 47.1049 6.17753 46.3793 7.67404C45.6285 9.22346 45.1952 10.8762 44.8652 12.5616C44.7493 13.1562 44.5528 13.7382 44.3739 14.3202C44.3512 14.3958 44.2127 14.4839 44.127 14.4865C43.8952 14.489 43.6609 14.4512 43.3964 14.4235C43.2805 13.7911 43.1545 13.1638 43.0487 12.5314C42.8572 11.4002 42.701 10.2614 42.4869 9.13528C42.3433 8.37947 42.1946 7.61106 41.92 6.89807C41.265 5.19749 40.0002 4.05621 38.2921 3.49942C37.1735 3.13411 35.9995 2.93508 34.838 2.71841C33.7572 2.51938 32.6613 2.38082 31.5704 2.24477C30.744 2.14148 29.9152 2.04826 29.0838 2.01299C27.3933 1.94244 25.7027 1.85427 24.0122 1.88198C22.0547 1.91473 20.0971 2.06086 18.1849 2.50427C17.3258 2.7033 16.5927 3.1971 16.0636 3.9252C15.9427 4.094 15.8696 4.33586 15.8646 4.54497C15.8268 6.75699 15.8041 8.96648 15.7839 11.1785C15.7663 13.0177 15.7512 14.8543 15.7461 16.6934C15.7386 18.9684 15.7461 21.246 15.7461 23.5411C15.8897 23.5588 15.9804 23.5814 16.0686 23.5814C19.6688 23.5814 23.2715 23.5915 26.8717 23.5739C27.5973 23.5713 28.333 23.5285 29.0435 23.39C30.5425 23.1002 31.5225 22.1303 32.1599 20.7874C32.5983 19.8653 32.7898 18.8752 32.8477 17.8675C32.8729 17.4316 32.7545 16.9857 32.7066 16.5448C32.6814 16.313 32.6487 16.0762 32.6638 15.8469C32.7016 15.3027 33.4146 14.7888 33.9437 14.9299C34.0545 14.9601 34.1654 15.1037 34.2157 15.2196C34.5886 16.0762 34.8229 16.9731 34.8481 17.9078C34.8809 19.2254 34.8783 20.5405 34.8859 21.8582C34.901 23.9165 34.9237 25.9723 34.9187 28.0307C34.9136 29.7464 34.8859 31.4621 34.8431 33.1778C34.8355 33.4599 34.7423 33.7597 34.6163 34.0167C34.4173 34.4249 34.1553 34.8002 33.9059 35.2159C33.6514 34.8607 33.4196 34.5382 33.1878 34.2132C32.8805 33.7824 32.8326 33.2811 32.8049 32.7747C32.7495 31.7316 32.6109 30.7012 32.296 29.6985C31.8072 28.1465 30.7591 27.1715 29.1795 26.8642C28.1264 26.6601 27.0405 26.5291 25.9698 26.5165C22.6039 26.4737 19.238 26.5014 15.8721 26.5014C15.7915 26.5014 15.7109 26.5089 15.5647 26.514C15.5647 27.0909 15.5647 27.6603 15.5647 28.2297C15.5698 31.1824 15.5673 34.1326 15.5824 37.0853C15.5975 40.3429 15.6177 43.5979 15.6554 46.8555C15.663 47.5962 15.7436 48.3419 16.2299 48.9566C16.6103 49.4404 17.1293 49.7125 17.7339 49.7855C18.7694 49.9115 19.8074 50.0677 20.8479 50.1181C22.9944 50.2264 25.1485 50.3675 27.295 50.3247C31.0464 50.2491 34.6516 49.453 37.9847 47.6567C40.1741 46.4751 41.9754 44.8778 43.0134 42.5675C43.3712 41.7739 43.5475 40.8971 43.8196 40.0632C43.9128 39.7785 44.0086 39.4813 44.1749 39.2344C44.263 39.1033 44.4999 39.0681 44.7316 38.9623L44.7291 38.9673Z" fill="#703133"/>
</svg>
