<?xml version="1.0" encoding="UTF-8"?>
<svg xmlns="http://www.w3.org/2000/svg" version="1.1" viewBox="0 0 540 540">
  <defs>
    <style>
      .cls-1 {
        fill-rule: evenodd;
      }

      .cls-1, .cls-2 {
        fill: #7c402e;
      }
    </style>
  </defs>
  <!-- Generator: Adobe Illustrator 28.7.1, SVG Export Plug-In . SVG Version: 1.2.0 Build 142)  -->
  <g>
    <g id="Layer_1">
      <g>
        <path class="cls-2" d="M167.45,407.75c.7-.71,1.46-1.25,2.28-1.62.83-.37,1.67-.56,2.53-.59.86-.03,1.7.11,2.51.42.81.3,1.54.77,2.2,1.4.53.52.96,1.05,1.28,1.6.33.55.56,1.11.7,1.68.14.58.21,1.15.2,1.75l1.1-1.13c-.04-.59-.16-1.14-.34-1.66-.18-.52-.44-1.03-.79-1.54-.35-.5-.8-1.01-1.34-1.54-.63-.61-1.32-1.1-2.07-1.46-.74-.36-1.52-.6-2.32-.72-.8-.11-1.61-.1-2.41.04-.81.14-1.59.42-2.35.83-.76.41-1.47.95-2.13,1.63-.66.68-1.17,1.41-1.55,2.18-.38.77-.63,1.57-.75,2.38-.12.81-.1,1.61.04,2.41.14.8.41,1.56.8,2.3.39.73.9,1.4,1.53,2.01.55.53,1.08.96,1.59,1.29.52.33,1.04.58,1.56.74.52.16,1.08.25,1.67.28l1.1-1.13c-.59.03-1.17-.02-1.75-.14-.58-.13-1.15-.34-1.71-.65-.56-.3-1.11-.71-1.64-1.23-.65-.64-1.15-1.35-1.48-2.15-.33-.8-.5-1.63-.5-2.49,0-.86.16-1.72.5-2.55.34-.84.85-1.62,1.54-2.34h0Z"/>
        <polygon class="cls-2" points="191.29 417.17 182.47 430.25 183.5 430.95 187.86 424.48 195.61 429.71 191.25 436.18 192.28 436.87 201.1 423.79 200.08 423.1 196.29 428.7 188.54 423.47 192.32 417.87 191.29 417.17 191.29 417.17"/>
        <path class="cls-2" d="M209.32,436.12c.4-.93.92-1.71,1.56-2.35.64-.64,1.36-1.13,2.17-1.45.8-.32,1.65-.48,2.54-.47.89.01,1.79.2,2.69.58.9.39,1.66.9,2.29,1.53.63.63,1.1,1.35,1.43,2.16.32.81.48,1.66.46,2.57-.02.9-.22,1.82-.61,2.75-.4.93-.92,1.71-1.56,2.35-.64.64-1.36,1.13-2.17,1.45-.8.33-1.65.49-2.54.48-.89-.01-1.79-.2-2.69-.58-.9-.39-1.66-.9-2.29-1.53-.63-.63-1.1-1.35-1.43-2.16-.32-.8-.48-1.66-.46-2.57.02-.9.22-1.82.61-2.75h0ZM208.18,435.64c-.46,1.09-.69,2.17-.71,3.23-.02,1.06.17,2.06.56,3.01.39.95.95,1.79,1.69,2.54.74.74,1.65,1.34,2.71,1.8,1.07.45,2.12.68,3.18.7,1.05.02,2.05-.16,3-.54.95-.38,1.8-.94,2.55-1.69.75-.75,1.36-1.67,1.83-2.75.46-1.09.69-2.17.71-3.23.02-1.06-.17-2.06-.56-3.01-.39-.95-.95-1.79-1.69-2.54-.75-.74-1.65-1.34-2.71-1.8-1.07-.45-2.12-.68-3.18-.7-1.05-.02-2.05.16-3,.54-.95.38-1.8.94-2.55,1.69-.75.75-1.36,1.67-1.83,2.75h0Z"/>
        <path class="cls-2" d="M235.98,444.82c.23-.97.61-1.82,1.12-2.56.52-.74,1.14-1.34,1.87-1.81.73-.47,1.51-.78,2.36-.94.85-.15,1.72-.13,2.61.07.72.17,1.36.4,1.93.71.56.3,1.05.66,1.47,1.08.42.42.78.88,1.07,1.39l.35-1.54c-.34-.48-.72-.9-1.14-1.25-.42-.36-.91-.66-1.47-.91-.56-.25-1.2-.46-1.95-.63-.86-.19-1.7-.26-2.52-.18-.83.07-1.61.26-2.36.58-.75.32-1.43.74-2.05,1.28-.62.54-1.15,1.18-1.59,1.92-.45.74-.77,1.57-.99,2.49-.21.92-.28,1.81-.2,2.67.07.86.27,1.67.59,2.42.32.76.74,1.44,1.28,2.05.53.61,1.15,1.13,1.87,1.56.71.43,1.49.74,2.35.94.74.17,1.42.27,2.03.29.61.02,1.18-.04,1.72-.17.53-.13,1.06-.34,1.57-.62l.35-1.54c-.49.33-1.01.59-1.58.78-.56.19-1.16.3-1.79.33-.64.03-1.32-.04-2.04-.21-.89-.21-1.68-.57-2.38-1.08-.7-.51-1.27-1.14-1.71-1.88-.45-.74-.74-1.56-.88-2.45-.14-.89-.1-1.82.11-2.8h0Z"/>
        <path class="cls-2" d="M260.92,448.49c.04-1.01.24-1.92.61-2.75.37-.83.87-1.54,1.5-2.14.63-.59,1.37-1.04,2.2-1.35.84-.31,1.75-.45,2.72-.42.98.04,1.88.24,2.69.61.81.37,1.51.87,2.11,1.5.59.64,1.04,1.38,1.35,2.24.31.85.45,1.78.42,2.79-.04,1.01-.24,1.92-.61,2.75-.37.83-.87,1.54-1.5,2.13-.63.59-1.37,1.05-2.21,1.36s-1.75.45-2.72.42c-.98-.04-1.87-.24-2.69-.61-.81-.37-1.51-.87-2.11-1.51-.59-.63-1.04-1.38-1.35-2.23-.31-.85-.45-1.78-.42-2.78h0ZM259.68,448.44c-.03,1.18.13,2.27.5,3.27.36.99.9,1.87,1.6,2.61.7.75,1.53,1.33,2.49,1.76.96.43,2.02.66,3.17.71,1.16.04,2.23-.13,3.22-.49.99-.36,1.86-.89,2.61-1.58.75-.69,1.34-1.52,1.77-2.49.44-.97.68-2.04.73-3.23.03-1.18-.13-2.27-.5-3.27-.36-.99-.9-1.87-1.6-2.61-.7-.75-1.53-1.33-2.49-1.76-.96-.43-2.02-.66-3.17-.71-1.16-.04-2.23.13-3.22.49-.99.36-1.86.89-2.61,1.58-.75.69-1.34,1.52-1.78,2.49-.44.97-.68,2.04-.73,3.23h0Z"/>
        <polygon class="cls-2" points="287.18 439.75 289.65 455.34 297 454.17 296.81 453.02 290.69 453.99 288.41 439.56 287.18 439.75 287.18 439.75"/>
        <path class="cls-2" d="M311.6,434.05l-2.01,17.7,1.29-.4.56-5.12,7.11-2.18,3.32,3.93,1.29-.4-11.57-13.55h0ZM312.44,436.81l5.29,6.28-6.17,1.88.88-8.16h0Z"/>
        <polygon class="cls-2" points="326.24 430.56 329.92 428.85 336.09 442.09 337.21 441.56 331.04 428.33 334.72 426.61 334.22 425.55 325.75 429.5 326.24 430.56 326.24 430.56"/>
        <polygon class="cls-2" points="349.06 425.89 354.57 422.17 353.92 421.2 348.4 424.92 345.35 420.39 351.24 416.42 350.58 415.45 343.67 420.12 352.49 433.2 359.41 428.53 358.75 427.56 352.87 431.53 349.06 425.89 349.06 425.89"/>
        <path class="cls-2" d="M367.89,415.98l-.46,1.13c.62.31,1.25.55,1.86.71.62.16,1.22.23,1.81.21.59-.02,1.16-.14,1.69-.36.54-.23,1.04-.57,1.5-1.02.55-.56.95-1.13,1.2-1.71.24-.58.36-1.16.35-1.72-.01-.57-.14-1.1-.36-1.6-.23-.5-.54-.96-.94-1.35-.38-.37-.78-.65-1.19-.83-.42-.18-.84-.28-1.27-.32-.43-.03-.86-.02-1.28.06-.42.07-.82.17-1.21.3-.38.13-.74.27-1.07.41-.48.21-.96.38-1.43.53-.48.14-.94.24-1.39.27-.45.04-.87,0-1.26-.1-.39-.11-.74-.31-1.04-.6-.35-.35-.58-.74-.67-1.17-.1-.43-.06-.87.12-1.34.18-.47.51-.94.98-1.42.35-.34.72-.59,1.11-.73.39-.14.78-.21,1.18-.2.4.01.78.07,1.16.17.37.11.72.24,1.03.39l.37-1.16c-.36-.22-.77-.38-1.24-.5-.46-.12-.96-.17-1.48-.15-.52.02-1.04.14-1.55.35-.51.21-1,.54-1.45.99-.61.61-1.04,1.25-1.29,1.92-.25.67-.31,1.34-.16,1.99.14.66.49,1.27,1.05,1.84.32.31.67.55,1.05.71.38.16.77.27,1.18.31.41.04.82.04,1.22,0,.41-.05.8-.13,1.17-.24.37-.11.72-.23,1.03-.37.35-.16.72-.31,1.09-.46.38-.15.76-.27,1.14-.36.39-.1.77-.15,1.15-.14.38,0,.75.07,1.11.22.36.14.71.37,1.04.7.28.28.49.6.64.95.14.35.21.72.21,1.1,0,.39-.1.78-.27,1.16-.17.39-.44.77-.8,1.13-.43.42-.86.73-1.29.91-.44.19-.89.27-1.34.27-.46,0-.94-.08-1.43-.23-.49-.15-1.01-.35-1.55-.59h0Z"/>
        <path class="cls-1" d="M336.54,372.01c-43.05,46.02-123.21,34.38-154.54-21.7h14.59c28.49,41.53,89.11,51.87,133.77,20.52,2.03.51,4.09.9,6.18,1.18h0Z"/>
        <path class="cls-1" d="M134.38,275.88c-11.97,20.73-4.86,47.24,15.86,59.2,7.75,4.47,16.3,6.28,24.61,5.71,1.08-2.62,2.72-5.32,4.8-8.08-8.46,4.28-18.73,4.96-27.86-.31-11.61-6.77-15.71-19.53-13.81-31.27,2.22-13.73,10.26-27.18,21.56-35.33,9.38-6.76,21.08-9.71,32.5-3.12,11.42,6.59,14.71,18.19,13.55,29.7-.77,7.65-3.45,15.24-7.49,21.99,5.32-4.43,11.13-8.89,17.02-13.28,1.32-16.18-6.54-32.43-21.53-41.09-20.73-11.97-47.24-4.86-59.2,15.86h0Z"/>
        <polygon class="cls-2" points="297.47 253.94 297.47 310.83 310.18 310.83 310.18 253.94 297.47 253.94 297.47 253.94"/>
        <path class="cls-2" d="M238.94,306.45c23.56-17.27,48.28-36.18,48.28-52.51h-72v4.04h58.11c0,20.48-91.33,63.05-91.33,92.35h14.59c7.73-20.08,27.97-33.34,42.35-43.88h0Z"/>
        <path class="cls-1" d="M418.8,275.88c-11.97,20.73-4.86,47.24,15.86,59.2,20.73,11.97,47.24,4.86,59.2-15.86,11.97-20.73,4.86-47.24-15.86-59.2-20.73-11.97-47.24-4.86-59.2,15.86h0ZM436.21,332.41c11.48,6.63,24.77,3.84,33.98-3.68,10.78-8.79,18.41-22.48,19.81-36.34,1.17-11.51-2.13-23.11-13.55-29.7-11.42-6.59-23.11-3.65-32.5,3.12-11.3,8.15-19.34,21.6-21.56,35.33-1.9,11.74,2.2,24.5,13.81,31.27h0Z"/>
        <path class="cls-1" d="M404.7,341.85c-36.95,46.7-107.24,29.1-107.24-33.17h12.71c0,53.56,59.87,70.78,94.52,33.17h0Z"/>
        <path class="cls-1" d="M179.33,365c-35.45,12.09-75.24-9.46-75.24-56.32h12.71c0,37.8,29.82,57.49,59.55,52.59.96,1.27,1.96,2.51,2.98,3.73h0Z"/>
        <path class="cls-2" d="M45.21,268.94c13.2,18.25,24.01,43.1,31.25,70.72,6.34-23.58,13.19-49.36,27.62-70.74v40.55h12.72v-55.53h-12.03c-11.4,17.37-19.59,33.39-25.5,57.61-5.44-25.75-15.01-41.23-26.41-57.61h-12.53v85.7h4.89v-70.7h0Z"/>
        <path class="cls-2" d="M330.53,268.94c13.2,18.25,24.01,43.1,31.25,70.72,6.34-23.58,13.19-49.36,27.62-70.74v70.68c2.59-1.92,5.09-4.14,7.43-6.68l5.29-5.74v-73.24h-12.03c-11.4,17.37-19.59,33.39-25.5,57.61-5.44-25.75-15.01-41.23-26.41-57.61h-12.53v63.84c.79,5.63,2.49,10.57,4.89,14.79v-63.63h0Z"/>
        <polygon class="cls-2" points="157.53 133.04 168.87 144 169.74 143.11 164.13 137.7 170.63 130.97 176.23 136.38 177.09 135.49 165.75 124.54 164.88 125.43 169.75 130.12 163.25 136.85 158.39 132.15 157.53 133.04 157.53 133.04"/>
        <path class="cls-2" d="M180.23,111.78l3.56,17.45,1.1-.78-1.05-5.04,6.09-4.26,4.37,2.71,1.11-.78-15.19-9.31h0ZM181.88,114.14l6.97,4.34-5.28,3.7-1.69-8.03h0Z"/>
        <polygon class="cls-2" points="207.59 96.9 212.9 108.82 196.45 101.24 203.09 116.17 204.23 115.66 198.92 103.74 215.37 111.32 208.72 96.39 207.59 96.9 207.59 96.9"/>
        <path class="cls-2" d="M220.49,91.59l4.61,15.09,3.88-1.19c1.1-.34,2.05-.83,2.85-1.47.8-.63,1.43-1.39,1.88-2.25.45-.87.72-1.82.8-2.85.08-1.03-.06-2.11-.4-3.25-.35-1.13-.85-2.1-1.48-2.92-.64-.81-1.39-1.45-2.25-1.92-.86-.46-1.8-.74-2.82-.82-1.02-.08-2.08.04-3.18.38l-3.88,1.18h0ZM222.02,92.35l2.69-.82c.91-.27,1.79-.38,2.64-.3.85.08,1.64.31,2.36.71.73.4,1.36.94,1.91,1.63.54.69.97,1.52,1.26,2.48.29.96.41,1.88.34,2.76s-.29,1.69-.67,2.42c-.38.73-.9,1.37-1.56,1.91-.66.54-1.45.95-2.36,1.23l-2.7.82-3.93-12.85h0Z"/>
        <path class="cls-2" d="M258.84,91.39c-.01-1,.15-1.92.47-2.76.33-.84.78-1.58,1.37-2.21.59-.63,1.28-1.12,2.07-1.48.79-.36,1.63-.54,2.55-.56.74-.01,1.42.06,2.04.22.62.16,1.18.39,1.69.7.51.3.97.67,1.38,1.09l-.03-1.58c-.44-.38-.92-.69-1.41-.93-.5-.24-1.04-.42-1.65-.53-.6-.11-1.28-.16-2.04-.14-.88.02-1.71.16-2.49.43-.79.27-1.5.65-2.15,1.13-.65.49-1.21,1.07-1.68,1.74-.47.67-.83,1.42-1.07,2.25-.25.83-.37,1.71-.36,2.66.02.94.17,1.82.45,2.64.28.82.66,1.55,1.16,2.21.49.65,1.07,1.21,1.73,1.68.67.47,1.39.82,2.19,1.06.79.24,1.63.36,2.51.34.76-.01,1.44-.08,2.04-.21.6-.13,1.14-.32,1.63-.58.48-.26.94-.58,1.38-.98l-.03-1.58c-.4.44-.84.82-1.34,1.14-.5.32-1.05.57-1.66.75-.61.18-1.29.28-2.03.29-.91.01-1.77-.15-2.57-.47-.8-.33-1.5-.8-2.12-1.4-.61-.61-1.1-1.33-1.45-2.16-.35-.83-.54-1.74-.57-2.74h0Z"/>
        <path class="cls-2" d="M282.82,83.59l-1.65,15.69,1.23.13.7-6.59,1.93.2,3.97,7.08,1.5.16-4-7.15c.63-.02,1.22-.12,1.77-.3.54-.18,1.02-.44,1.44-.79.42-.34.76-.76,1.02-1.25.26-.49.43-1.06.5-1.7.07-.73,0-1.38-.2-1.97-.2-.59-.53-1.1-.96-1.54-.44-.44-.97-.79-1.59-1.06-.62-.27-1.31-.44-2.07-.53l-3.59-.38h0ZM283.93,84.88l2.35.25c.51.05,1,.17,1.46.35.47.18.88.43,1.23.74.36.32.62.7.8,1.15.18.45.24.97.19,1.57-.07.59-.24,1.09-.51,1.5-.27.41-.61.72-1.02.95-.41.24-.86.39-1.36.47-.49.08-1,.09-1.5.04l-2.36-.25.71-6.77h0Z"/>
        <path class="cls-2" d="M309.35,87.46l-10.84,14.14,1.31.33,3.11-4.1,7.22,1.8.82,5.09,1.31.33-2.94-17.57h0ZM308.65,90.26l1.3,8.11-6.26-1.56,4.95-6.55h0Z"/>
        <polygon class="cls-2" points="324.9 100.95 330.43 103.19 330.87 102.1 325.34 99.86 327.38 94.8 333.13 97.13 333.57 96.04 326.67 93.25 320.76 107.88 321.91 108.34 324.9 100.95 324.9 100.95"/>
        <polygon class="cls-2" points="342.99 101.66 346.5 103.69 339.2 116.33 340.28 116.95 347.58 104.31 351.09 106.33 351.67 105.32 343.58 100.65 342.99 101.66 342.99 101.66"/>
        <polygon class="cls-2" points="357.29 118.57 362.53 122.66 363.25 121.74 358.01 117.65 361.37 113.35 366.96 117.72 367.69 116.8 361.12 111.66 351.4 124.09 357.97 129.23 358.7 128.3 353.1 123.93 357.29 118.57 357.29 118.57"/>
        <path class="cls-2" d="M377.3,125.04l-11.35,10.96,2.82,2.92c.81.83,1.67,1.45,2.6,1.87.93.42,1.88.64,2.86.65.98.01,1.95-.18,2.9-.58.95-.4,1.86-1.01,2.71-1.83.68-.66,1.22-1.35,1.64-2.09s.69-1.49.84-2.27c.15-.77.17-1.55.05-2.33-.11-.78-.36-1.54-.74-2.28-.38-.74-.88-1.44-1.52-2.11l-2.82-2.92h0ZM377.32,126.75l1.95,2.03c.66.68,1.15,1.42,1.47,2.21.32.79.47,1.6.44,2.43-.02.83-.22,1.64-.59,2.44-.37.8-.91,1.55-1.63,2.25-.73.69-1.5,1.22-2.31,1.56-.81.34-1.63.51-2.46.51-.83,0-1.63-.18-2.41-.53-.78-.35-1.5-.86-2.16-1.54l-1.96-2.02,9.66-9.33h0Z"/>
        <path class="cls-1" d="M215.57,214.21v-.31.31h0ZM298.87,206.55c0-2.73-4.62-6.41-4.75-6.89h.46c1.08,0,3.34,2.5,3.99,3.2,1.22,1.3,1.77,2.69,2.54,4.5,1.05,2.45.73,2.85,2.96,4.23,1.36.84,3.47,1.7,4.59,2.45l4.88.63.02-.17h4.59l5.67.26c-.42.41-5.25.9-6.28.97-1.69.11-3.91,1.07-5.97,1.07h-.46c-3.86,0-7.21-4.84-8.58-5.21v.61l.52,3.97-.06,4.75c0,2.39-1.31,10.57-2.45,11.33-.2-.4-.15.13-.15-.46v-.46c0-1,.44-1.14.46-2.45,0-.73.2-1.87.35-2.56.21-1.01.27-4.07.27-5.4,0-2.45-.22-4.56-.47-6.72-.13-1.06-.51-2.42-.59-3.09-.17-1.49-.62-1.64-.62-2.9l-.92-1.68h0ZM218.79,215.13c.15-.58,6.24-3.13,7.29-3.58,2.5-1.07,4.94-2.47,7.43-3.44,2.47-.97,4.9-2.42,7.39-3.48,2.5-1.07,4.82-2.52,7.27-3.61,1.81-.8,5.45-2.68,7.11-3.77,2.15-1.41,4.65-2.62,6.88-3.99,2.32-1.43,4.35-2.79,6.63-4.24,1.25-.8,5.59-4.11,6.51-4.36-.59,1.63-9.76,8.66-11.74,10-2.21,1.49-4.47,2.79-6.63,4.24-2.25,1.52-4.77,2.54-7.07,3.95-2.3,1.42-4.89,2.29-7.3,3.57-1.41.75-6.18,2.94-7.57,3.31-2.48.65-5.33,2.29-7.89,2.98-2.25.6-6.16,2.46-8.3,2.41h0ZM254.8,209.34c2.43-1.38,5.03-2.45,7.28-4.06,2.17-1.56,4.74-2.78,6.96-4.37,2.39-1.71,4.05-3.21,5.79-5.54,1.11-1.48,3.02-5.75,3.21-8.12.35.26.46.77.46,1.38,0,2.78-1.85,6.54-3.01,8.32-1.44,2.21-3.62,4.07-5.69,5.64-2,1.5-4.54,3.33-6.71,4.62-1.2.72-2.24,1.47-3.45,2.21-1.23.76-2.52,1.29-3.67,2-4.29,2.66-11.76,3.85-18.81,3.85-3.48,0-7.81.07-10.76.57-1.54.26-3.43.73-4.74.92-2.37.34-2.26.34-4.87.34v-.31c1.12-.09,3.51-.97,4.63-1.19,1.58-.31,2.77-.81,4.56-1.1,1.47-.24,3.22-.65,4.89-.77,1.57-.12,3.78-.1,5.33-.34,3.53-.53,6.69-.39,10.1-1.23,3.05-.75,5.99-1.43,8.49-2.84h0ZM215.88,213.6h.15v-.46h-.15v.46h0ZM216.67,212.4l-.34-.03.03.34.31-.31h0ZM217.56,210.99v-.31l-.34.28.34.03h0ZM217.87,209.62v.61h.15v-.61h-.15ZM218.33,209.16l.34-.18-.31-.31-.03.49h0ZM219.09,207.47c-.47.34-.25-.1-.31.61h.31v-.61h0ZM296.2,184.74c-.88.42-1.65,1.05-1.92,2.22,1.63.14,2.9,1.38,3.55,2.57.96,1.76-.31,3.7,2.42,3.7,1.22,0,2.14-.75,2.14-1.84v-.31c0-1.37-3.17.15-3.22.15-.21,0-.31-.21-.31-.46v-.15c0-1.13,1.05-1.46,1.99-1.68l-.11-.18-4.55-4.03h0ZM300.36,180.08l-.27-.07-1.06,2.82.64.58-2,.86,1.88,1.02-.07.14h.42s.46-5.35.46-5.35h0ZM240.65,177.43c-3.72,2.09-7.16,4-10.14,6.86-2.45,2.35-6.26,6.25-7.64,9.51-1.03,2.42-1.17,4.09-1.97,6.61-.28.88-.41,2.66-.71,3.57-.22.65-.93,2.55-.95,3.19h.31c.06-.71,2.59-5.73,3.04-6.76,1.02-2.27,2.42-4.26,3.52-6.28.95-1.75,2.94-4.07,4.27-5.53,1.51-1.65,3.4-3.08,5.45-4.2,4.7-2.58,8.34-4.04,13.6-6,1.14-.43,2.61-.76,3.7-1.2,1.1-.45,2.71-.61,3.89-1.01,2.41-.82,5.94-.59,8.47-1.18v-.31c-1.41-.03-4.05-1.07-5.67-1.07h-5.82c-3.76,0-10.86,2.4-13.35,3.8h0ZM281.72,199.36c-.62.59.03.48-.74.79-.63.26-.33.03-.92.46-.58.42-1.21.51-1.61,1.15-.73,1.17-1.51,2.18-2.24,3.27.06.02,1.66.82,1.84.91.6.31,1.25.51,1.8.96.84.7,2.06,2.01,2.33,3.18-.79-.18-1.86-1.4-2.83-1.91-1.22-.64-2.13-.9-3.29-1.46-.37.77-1.53,4.5-1.53,5.51,0,.46,3.73,2.29,4.44,5.36h.31c.11-1.34,4.29-6.72,4.29-9.19,0-1.34-.77-2-.77-3.37v-1.07l.31-2.78c.18,1.46.53,5.74,1.68,5.84.31-1.31,2.39-2.66,3.06-3.67l.09-1.23.2-.04.53,1.41,1.48.06,2.3-.04c2.59,0,4.93,1.36,5.97,2.91-2.9-.68-5.17-1.97-9.03-1.07.31,1.34.96,2.77,1.5,3.86.51,1.02,2.43,1.11,3.71,1.5,1.57.48,5.82,3.72,5.2,5.06-1.08-.79-2.06-1.89-3.35-2.47-.88-.4-3.13-1.48-4.31-1.51l3.04,6.44c2.58-.01,4.05,1.81,5.08,3.36-1.27-.03-2.24-1.84-3.98-1.84-.68,0,.98,3.06,1.16,3.58.31.84,1.13,3.22,1.13,4.07v.46c0,.42-.12.37-.46.46-.37-1.58-1.2-3.55-1.96-4.78-.39-.64-2.21-3.74-2.33-4.25-1.81.48-2.8,2.88-3.67,3.52-.12-.08-.31-.08-.31-.31,0-1.31,1.95-3.72,3.06-3.98.09-1.14-.7-2.38-1.29-3.46-.61-1.12-.94-2.33-1.47-3.43-1.88.16-5.41,4.23-5.82,5.97-.34-.09-.46-.04-.46-.46v-.31c0-1.21,1.43-3.37,1.99-4.13.44-.6,2.55-2.53,3.37-2.6.1-.43.15-.26.15-.61,0-.55-1.05-2.87-1.07-3.98-.96.26-3.3,3.26-3.37,4.44-.19,2.91-1.99,4.9-1.99,5.67v.31c0,1.01,2.33,4.25,2.97,5,1.23,1.45,2.48,2.81,3.88,4.08,1.44,1.3,2.77,2.49,4.19,3.77.75.67,3.79,3.17,3.81,4.15-1.73-.92-3.13-2.26-4.72-3.4-1.68-1.2-2.89-2.31-4.44-3.52-1.54-1.21-2.8-2.57-3.99-4.13-.57-.75-1.04-1.58-1.48-2.5-.29-.6-.79-2.57-1.15-2.83-.18.78-3.23,4.49-3.92,5.42-.54.72-3.52,5.55-3.59,5.6-.2-.4-.15.13-.15-.46,0-.66.46-.35.46-1.53.36-.24,1.58-3,1.88-3.63.25-.52,1.94-3.46,1.94-3.57,0-1.04-3.11-4.13-4.13-4.13h-.46l-.88,8.29-.17-.02-.21-1.98.04-6.59c-.78.21-1.64,1.09-2.18,1.64-.41.41-1.38,1.84-1.64,2.03-.1-.43-.15-.26-.15-.61,0-.51,1.34-2.63,1.72-3.03.66-.7,1.77-1.49,2.57-2.03l.61-4.29c-1.37.91-2.67,2.28-4.17,3.34-1.48,1.05-2.88,2.13-4.57,2.94l.49.59c-.03,4.38,7.92,12.17,7.17,13.8-.81-.6-1.93-2.16-2.79-3.02-.99-.98-1.78-1.94-2.7-2.96-1.23-1.36-4.11-5.05-3.54-7.49-2.68,1.29-7.81,3.83-10.86,4.45-1.82.37-4.05,1.38-6.14,1.52-.65.04-1.03.27-1.59.4-.54.13-1.12.01-1.72.12-.98.17-2.29.4-3.28.4h-3.52c-2.06,0-4.19-.78-5.97-.92-1.23-.1-4.66-1.53-5.36-1.53h-1.38c-1.48,0-2.33.47-3.67.46-1.32,0-2.57,0-3.83,0l-1.9-1.28c.47-.3-.06-.25.53-.25h.15c.06,0,1.65.61,2.91.61,2.02,0,3.51-1.07,5.51-1.07h.61c1.52,0,5.38.89,6.86,1.26,1.73.43,5.02.73,7.23.73h2.45c10.03,0,17.85-5.13,24.61-8.62,6.17-3.19,14.29-9.73,14.29-18.94,0-.72-.2-3.34-.36-3.92-.29-1.04-.86-1.85-.86-3.27l.15-.13.75.9.17-.78,11.91,2.41c-.07.23-.01.35-.44.35h-1.38c-2.34,0-8.69-.84-9.95-1.68v.61c1.75,2.62-.7,3.38,4.59,3.37,1.22,0,7.12-.06,7.5.46-1.81,0-3,.62-5.51.61-1.2,0-1.74.16-2.91.15-.84,0-2.3-.36-2.3.31v3.37h.61c3.18,0,11.08-2.99,12.1-2.76-.33,1.25-7.29,2.98-8.27,3.83,3.42,0,4.09,0,6.4-1.25.64-.35,4.8-2.72,4.93-2.73.1-.43.15-.26.15-.61,0-.42-2.26-2.88-2.76-3.22v2.76s-.33.08-.33.08c-2.15-1.39-.91-1.75-2.12-3.15l1.04-3.18-.18.09-21.72-10.01-.73-.07c.5.43,1.42.87,2.02,1.35.57.46,1.28.94,1.77,1.44.76.77,2.68,2.48,2.95,3.48-.84-.3-2.93-2.13-4.09-2.81-1.32-.77-3.26-1.48-5.26-1.48h-2.14c-2.95,0-6.36.99-8.97,1.44-2.63.45-5.53,1.9-7.87,2.54-3.45.94-11.05,5.13-13.72,7.11-3.4,2.53-6.93,7.85-9.22,11.6-.89,1.46-7.9,12.16-7.69,12.68,1.78-1.3,4.49-3.55,6.11-5.06,1.97-1.83,3.78-3.25,5.79-5.23,4.12-4.07,6.99-6.8,11.7-10.35,3.93-2.96,9.55-5.73,14.89-7.31,2.18-.65,6.66-1.89,8.97-2.06.33-.02,4.4-.68,4.73-.78.57-.17,4.14-.59,4.92-.59v.31c-.46.04-.91.48-1.71.74-.41.13-1.46.48-1.82.63-.88.39-2.91.82-3.52,1.23-.21,0-7.89,1.59-8.24,1.72-1.01.38-2.79,1.02-3.74,1.32-1.29.41-2.22.96-3.4,1.5-3.39,1.54-9.52,5.23-12.38,7.37-1.98,1.49-3.82,2.67-5.61,4.34-1.71,1.59-3.41,3.16-5.1,4.85-2.03,2.03-8.43,7.89-11.6,8.15l-.36-.43-.25-.03c-.05.61-1.38,2.3-1.99,2.3h-.46l-.89,2.66-.18-.06c0-1.77-.22-1.49.64-3.03.43-.76.88-1.75,1.25-2.57.95-2.09,1.37-3.34,2.15-5.66.69-2.05.96-4.1,1.4-6.41.39-2.05,1.22-4.14,1.92-5.89,1.26-3.15,4.08-6.99,6.3-9.32,1.24-1.3,7.06-6.53,8.54-6.93-.01-.05-4.03-5.55-4.65-6.68-1.39-2.54-2.41-4.81-3.7-7.48-1.24-2.57-2.55-4.84-3.96-7.22-.73-1.22-3.93-6.01-3.93-7.25v-.61c0-.46.18-.42.61-.46,0,1.8,3.35,5.97,4.32,7.32,1.59,2.22,2.95,4.76,4.26,7.22,1.2,2.26,2.73,5.45,4.17,7.46.86,1.2,1.5,2.26,2.38,3.44.45.6,2.35,2.71,2.48,3.19l1.5-.97.03-.26c-.78-.21-4.67-4.7-5.26-5.61-.72-1.12-1.55-2.05-2.28-3.23-.72-1.16-1.27-2.2-1.93-3.43-1.3-2.42-2.4-4.72-3.78-7.09-.74-1.26-1.32-2.22-2.19-3.32-.5-.63-2.26-2.3-2.33-3.03,1.42.16,4.88,4.46,5.65,5.68,1.45,2.33,2.68,4.74,4.12,7.05,1.51,2.4,2.78,4.48,4.59,6.59.68.8,5.33,5.54,5.4,5.78,1.08-.52,3.32-.87,3.83-1.84-1.09-.09-5.94-3.91-6.91-4.72-1.68-1.4-4.51-4.11-5.69-5.94-1.52-2.35-3.2-4.67-4.52-7.12-.95-1.76-5.56-5.47-5.69-5.95h.46c.47,0,.51.46,1.07.46.25,0,.36-.42.46-.61h.92c-.18-.24-.03-.31-.46-.31h-.61c-.25-.68-1.87-.6-2.6-.77.33-.23.51-.31,1.07-.31h3.37l8.72.71,14.09-.96c4.6-.21,8.99,1.09,12.5,1.86,1.58.35,9.19,3.18,10.62,3.99,1.57.89,3.53,1.51,5.05,2.45,1.42.87,3.48,1.66,4.76,2.59,1.34.97,2.96,2.18,4.38,3.06.63.39,3.73,3.72,4.19,3.76v-.31h.46v.31l-.54.38c.61.12,3.07,2.4,3.53,2.9.56.61,1.04,1.04,1.57,1.64.41.47.84,1.43,1.56,1.5v.61h.31c-.17-2-6.18-6.54-6.28-6.89h.46c1.38,0,6.81,4.97,7.72,6.21,1.99,2.73,3.92,5.33,3.92,10.01,0,1.58-.61,2.73-.61,3.67-.25.17-.92,1.19-.92,1.53,0,.08,3.83,3.31,3.83,5.05,0,1.61-1.81,2.25-2.76,2.91,6.57,0,12.76,1.42,16.91,3.92,4.41,2.66,6.67,7.11,6.67,14.15,0,.31-.32.28-.61.31-.36-4.36-2.47-8.07-4.76-10.55-1.44-1.56-2.33-2.25-4.31-3.35-.85-.47-4.46-2.18-5.48-2.18-.43,0-3.78.84-4.59.92-1.12.12-3.17,1.13-3.68,1.83,1.05.24,6.88,1.99,7.35,1.99h.46c.25,0,2.37-.84,3.68-.61l.03-.16,5.03.87.17.5.89.16v.31h-.61c-.79,0-3.14-.77-4.29-.77h-.46c-1.03,0-1.54.38-2.45.46l4.48,2.22c1.05.07,2.48-.07,3.32.24.72.27,1.79.93,2.31,1.06-.16.21-.04.35-.46.31l-3.21-.41c.49.79,2.34,1.99,3.14,3.08.59.79,2.18,2.66,2.21,3.77h-.31c-.09-1.04-5.7-5.82-6.58-5.82-.35,0-.46.11-.46.46,0,1.98,1.36,3.59,1.84,4.9-1.53-.41-3.39-2.99-3.37-5.05.02-1.72-.62-1.85-1.81-2.32-.92-.36-1.87-1.05-3.08-1.05l-.19,1.37.03,1.84c0,1.4.86,4.43,1.38,5.21v.61c-.79-.53-2.19-2.55-2.48-3.64-.64-2.41-.43-2.71-.43-5.39v-.46c0-.62-5.53-2.45-6.12-2.45h-.77v.77c0,.96.74,3.63,1.07,4.29.29.58,1.74,3.09,1.68,3.22-.94.41-3.67-3.58-3.95-5.08-.07-.38-.64-3.81-.71-3.88-.2-.2-3-.99-3.61-.99v-.31c.71-.02.51-.15,1.07-.15.6,0,2.27.8,3.25.49.53-.17,1.65-1.16,2.51-1.47,1.1-.39,1.87-.59,3.06-.92,1.15-.32,2.67.26,3.43-.4-1.33-.03-2.1-.56-3.22-.61-1.08-.05-1.97-.32-3.36-.47-1.28-.14-1.74-.45-3.38-.45-1.11,0-2.6-.06-2.6-1.07v-1.07c-.44.16-1.24,1.44-1.65,1.88-.67.72-1.06,1.08-1.85,1.67-.95.72-3.53,1.96-5.08,1.96h-2.91c-1.19,0-4.21-.96-5.36-1.22l-.9,2.61h1.35c.41,0,.42-.08.77-.16h0ZM269.78,174.25h-.61v.15h.61v-.15h0ZM298.26,173.48v-.31.31h0ZM267.35,173.25l-.32.11.32-.11h0ZM266.41,172.72h-.77v.15h.77v-.15h0ZM297.8,172.11c-.4.29-.33.23,0,.61v-.61h0ZM224.38,149.33c-.03.3,2.65,2.31,3.1,2.75,1.04,1.04,1.7,2.04,2.6,3.22,1.71,2.25,3.22,4.45,5.21,6.43,1.97,1.96,3.91,3.82,6.14,5.5,1.09.82,2.33,1.61,3.35,2.46.78.64,3.18,1.61,3.26,2.56.9,0,3.01-.46,3.94-.65.57-.12,3.45-.27,4.17-.27,2.04,0,6.89.35,7.97,1.08h1.07c-.56-.76-18.94-8.03-21.68-9.55-3.77-2.08-6.42-3.28-9.67-5.95-1.54-1.27-6.77-6.81-8.54-6.96l-.92-.62h0ZM298.41,178.23c0-1.02-1.16-3.57-1.6-4.37-.71-1.3-1.64-2.21-2.57-3.24-2.19-2.44-3.9-3.4-6.43-5.36-2.3-1.78-4.61-3.9-6.99-5.48-2.26-1.5-5.39-2.59-7.79-4-2.4-1.4-5.46-2.63-8.04-3.75-1.11-.48-3.37-1.04-4.55-1.33-.73-.18-1.47-.04-2.38-.27-.44-.11-1.92-.42-2.35-.56-2.8-.88-7.47-.28-11.17-.28-2.08,0-10.55-.39-11.33.15,1.54.03,9.14,1.53,10.43,1.97.58.2,1.78.34,2.52.54.56.15,2.1.49,2.51.55,1.73.28,3.32.86,5.04,1.08.34.04,4.55,1.13,4.97,1.3,1.62.65,2.97.82,4.53,1.59,1.42.7,2.76,1.14,4.19,1.93,1.39.76,2.64,1.34,4.02,2.1,5.49,3.02,9.92,6.27,14.84,9.81,2.11,1.52,4.68,3.92,6.46,5.79.99,1.05,1.91,2.16,2.73,3.39.48.72.63,1.34,1.04,2.02.23.38,1.93,1.03,1.93.22v-3.83h0ZM228.74,149.6c-1.3,0-1.74-.61-2.45-.61h-.15c-.44,0-.28.05-.46.31,1.76.15,6.31,4.14,7.54,5.32,2.51,2.41,4.58,3.32,7.65,5.06,1.33.75,3.17,1.2,4.5,1.93,1.14.63,3.31,1.44,4.52,1.91,2.76,1.08,6.4,2.44,8.98,3.72,1.37.68,3.14,1.2,4.6,1.83,1.43.62,3.03,1.38,4.48,1.95,2.9,1.13,5.85,2.71,8.69,4.02,1.93.89,15.68,8.5,15.94,9.47,1.13-.54.79-.72,1.65-1.41.53-.42,1.71-.67,1.71-1.19,0-.63-5.23-5.76-6.03-6.52-1.66-1.58-5.04-4.17-7.06-5.34-1.26-.73-2.46-1.7-3.8-2.48-1.34-.78-2.59-1.43-3.9-2.23-2.16-1.32-5.81-3.17-8.21-4.19-5.73-2.44-11.69-5.19-18.31-6.65-1.44-.32-3.44-.88-4.97-1.31-.88-.25-4.38-1.08-4.99-1.13-1.17-.09-9.4-2.09-9.95-2.45h0ZM232.11,149.14h-1.68v.15h1.68v-.15h0Z"/>
      </g>
    </g>
  </g>
</svg>